<mxfile host="app.diagrams.net" agent="Mozilla/5.0 (Windows NT 10.0; Win64; x64) AppleWebKit/537.36 (KHTML, like Gecko) Chrome/135.0.0.0 Safari/537.36" version="26.2.14">
  <diagram id="C5RBs43oDa-KdzZeNtuy" name="Page-1">
    <mxGraphModel dx="420" dy="507" grid="1" gridSize="10" guides="1" tooltips="1" connect="1" arrows="1" fold="1" page="1" pageScale="1" pageWidth="827" pageHeight="1169" math="0" shadow="0">
      <root>
        <mxCell id="WIyWlLk6GJQsqaUBKTNV-0" />
        <mxCell id="WIyWlLk6GJQsqaUBKTNV-1" parent="WIyWlLk6GJQsqaUBKTNV-0" />
        <mxCell id="2ltraiP_QTm35YtcfbR_-1" style="edgeStyle=orthogonalEdgeStyle;rounded=0;orthogonalLoop=1;jettySize=auto;html=1;exitX=0.5;exitY=1;exitDx=0;exitDy=0;entryX=0.5;entryY=0;entryDx=0;entryDy=0;" edge="1" parent="WIyWlLk6GJQsqaUBKTNV-1" source="WIyWlLk6GJQsqaUBKTNV-3" target="2ltraiP_QTm35YtcfbR_-0">
          <mxGeometry relative="1" as="geometry" />
        </mxCell>
        <mxCell id="WIyWlLk6GJQsqaUBKTNV-3" value="主程序开始" style="rounded=1;whiteSpace=wrap;html=1;fontSize=12;glass=0;strokeWidth=1;shadow=0;" parent="WIyWlLk6GJQsqaUBKTNV-1" vertex="1">
          <mxGeometry x="160" y="40" width="120" height="40" as="geometry" />
        </mxCell>
        <mxCell id="2ltraiP_QTm35YtcfbR_-2" style="edgeStyle=orthogonalEdgeStyle;rounded=0;orthogonalLoop=1;jettySize=auto;html=1;exitX=0.5;exitY=1;exitDx=0;exitDy=0;entryX=0.5;entryY=0;entryDx=0;entryDy=0;" edge="1" parent="WIyWlLk6GJQsqaUBKTNV-1" source="2ltraiP_QTm35YtcfbR_-0">
          <mxGeometry relative="1" as="geometry">
            <mxPoint x="220" y="170" as="targetPoint" />
          </mxGeometry>
        </mxCell>
        <mxCell id="2ltraiP_QTm35YtcfbR_-0" value="初始化INT0,TIM0,P2.0" style="rounded=0;whiteSpace=wrap;html=1;" vertex="1" parent="WIyWlLk6GJQsqaUBKTNV-1">
          <mxGeometry x="160" y="110" width="120" height="30" as="geometry" />
        </mxCell>
        <mxCell id="2ltraiP_QTm35YtcfbR_-5" value="等待定时器&lt;div&gt;INT0中断&lt;/div&gt;" style="rounded=0;whiteSpace=wrap;html=1;" vertex="1" parent="WIyWlLk6GJQsqaUBKTNV-1">
          <mxGeometry x="160" y="170" width="120" height="30" as="geometry" />
        </mxCell>
        <mxCell id="2ltraiP_QTm35YtcfbR_-9" style="edgeStyle=orthogonalEdgeStyle;rounded=0;orthogonalLoop=1;jettySize=auto;html=1;exitX=0.5;exitY=1;exitDx=0;exitDy=0;entryX=0.5;entryY=0;entryDx=0;entryDy=0;" edge="1" parent="WIyWlLk6GJQsqaUBKTNV-1" source="2ltraiP_QTm35YtcfbR_-7" target="2ltraiP_QTm35YtcfbR_-8">
          <mxGeometry relative="1" as="geometry" />
        </mxCell>
        <mxCell id="2ltraiP_QTm35YtcfbR_-7" value="INT0下降沿触发" style="rounded=1;whiteSpace=wrap;html=1;" vertex="1" parent="WIyWlLk6GJQsqaUBKTNV-1">
          <mxGeometry x="300" y="40" width="120" height="40" as="geometry" />
        </mxCell>
        <mxCell id="2ltraiP_QTm35YtcfbR_-8" value="&lt;font style=&quot;font-size: 11px;&quot;&gt;模式变量mode循环切换&lt;/font&gt;" style="rounded=0;whiteSpace=wrap;html=1;" vertex="1" parent="WIyWlLk6GJQsqaUBKTNV-1">
          <mxGeometry x="300" y="110" width="120" height="30" as="geometry" />
        </mxCell>
        <mxCell id="2ltraiP_QTm35YtcfbR_-12" style="edgeStyle=orthogonalEdgeStyle;rounded=0;orthogonalLoop=1;jettySize=auto;html=1;exitX=0.5;exitY=1;exitDx=0;exitDy=0;entryX=0.5;entryY=0;entryDx=0;entryDy=0;" edge="1" parent="WIyWlLk6GJQsqaUBKTNV-1" source="2ltraiP_QTm35YtcfbR_-10" target="2ltraiP_QTm35YtcfbR_-11">
          <mxGeometry relative="1" as="geometry" />
        </mxCell>
        <mxCell id="2ltraiP_QTm35YtcfbR_-10" value="TIM0溢出中断" style="rounded=1;whiteSpace=wrap;html=1;" vertex="1" parent="WIyWlLk6GJQsqaUBKTNV-1">
          <mxGeometry x="300" y="165" width="120" height="40" as="geometry" />
        </mxCell>
        <mxCell id="2ltraiP_QTm35YtcfbR_-11" value="&lt;span style=&quot;font-size: 11px;&quot;&gt;根据mode变量&lt;/span&gt;&lt;div&gt;&lt;span style=&quot;font-size: 11px;&quot;&gt;重装载计数寄存器&lt;/span&gt;&lt;/div&gt;&lt;div&gt;&lt;span style=&quot;font-size: 11px;&quot;&gt;TH0,TL0&lt;/span&gt;&lt;/div&gt;" style="rounded=0;whiteSpace=wrap;html=1;" vertex="1" parent="WIyWlLk6GJQsqaUBKTNV-1">
          <mxGeometry x="300" y="230" width="120" height="50" as="geometry" />
        </mxCell>
        <mxCell id="2ltraiP_QTm35YtcfbR_-17" style="edgeStyle=orthogonalEdgeStyle;rounded=0;orthogonalLoop=1;jettySize=auto;html=1;exitX=0;exitY=0.5;exitDx=0;exitDy=0;entryX=1;entryY=0.5;entryDx=0;entryDy=0;" edge="1" parent="WIyWlLk6GJQsqaUBKTNV-1" source="2ltraiP_QTm35YtcfbR_-13" target="2ltraiP_QTm35YtcfbR_-16">
          <mxGeometry relative="1" as="geometry" />
        </mxCell>
        <mxCell id="2ltraiP_QTm35YtcfbR_-18" value="是" style="edgeLabel;html=1;align=center;verticalAlign=middle;resizable=0;points=[];" vertex="1" connectable="0" parent="2ltraiP_QTm35YtcfbR_-17">
          <mxGeometry x="-0.0625" y="1" relative="1" as="geometry">
            <mxPoint as="offset" />
          </mxGeometry>
        </mxCell>
        <mxCell id="2ltraiP_QTm35YtcfbR_-25" style="edgeStyle=orthogonalEdgeStyle;rounded=0;orthogonalLoop=1;jettySize=auto;html=1;exitX=0.5;exitY=1;exitDx=0;exitDy=0;" edge="1" parent="WIyWlLk6GJQsqaUBKTNV-1" source="2ltraiP_QTm35YtcfbR_-13">
          <mxGeometry relative="1" as="geometry">
            <mxPoint x="360" y="380" as="targetPoint" />
          </mxGeometry>
        </mxCell>
        <mxCell id="2ltraiP_QTm35YtcfbR_-27" value="否" style="edgeLabel;html=1;align=center;verticalAlign=middle;resizable=0;points=[];" vertex="1" connectable="0" parent="2ltraiP_QTm35YtcfbR_-25">
          <mxGeometry x="-0.3206" y="-1" relative="1" as="geometry">
            <mxPoint as="offset" />
          </mxGeometry>
        </mxCell>
        <mxCell id="2ltraiP_QTm35YtcfbR_-13" value="1HZ模式？" style="rhombus;whiteSpace=wrap;html=1;" vertex="1" parent="WIyWlLk6GJQsqaUBKTNV-1">
          <mxGeometry x="320" y="310" width="80" height="40" as="geometry" />
        </mxCell>
        <mxCell id="2ltraiP_QTm35YtcfbR_-14" style="edgeStyle=orthogonalEdgeStyle;rounded=0;orthogonalLoop=1;jettySize=auto;html=1;exitX=0.5;exitY=1;exitDx=0;exitDy=0;entryX=0.506;entryY=-0.085;entryDx=0;entryDy=0;entryPerimeter=0;" edge="1" parent="WIyWlLk6GJQsqaUBKTNV-1" source="2ltraiP_QTm35YtcfbR_-11" target="2ltraiP_QTm35YtcfbR_-13">
          <mxGeometry relative="1" as="geometry" />
        </mxCell>
        <mxCell id="2ltraiP_QTm35YtcfbR_-22" style="edgeStyle=orthogonalEdgeStyle;rounded=0;orthogonalLoop=1;jettySize=auto;html=1;exitX=0.5;exitY=1;exitDx=0;exitDy=0;entryX=0.5;entryY=0;entryDx=0;entryDy=0;" edge="1" parent="WIyWlLk6GJQsqaUBKTNV-1" source="2ltraiP_QTm35YtcfbR_-16" target="2ltraiP_QTm35YtcfbR_-19">
          <mxGeometry relative="1" as="geometry" />
        </mxCell>
        <mxCell id="2ltraiP_QTm35YtcfbR_-16" value="以20HZ频率&lt;div&gt;自增counter&lt;/div&gt;" style="rounded=0;whiteSpace=wrap;html=1;" vertex="1" parent="WIyWlLk6GJQsqaUBKTNV-1">
          <mxGeometry x="180" y="230" width="80" height="50" as="geometry" />
        </mxCell>
        <mxCell id="2ltraiP_QTm35YtcfbR_-21" style="edgeStyle=orthogonalEdgeStyle;rounded=0;orthogonalLoop=1;jettySize=auto;html=1;exitX=0.5;exitY=1;exitDx=0;exitDy=0;" edge="1" parent="WIyWlLk6GJQsqaUBKTNV-1" source="2ltraiP_QTm35YtcfbR_-19">
          <mxGeometry relative="1" as="geometry">
            <mxPoint x="220" y="380" as="targetPoint" />
            <Array as="points">
              <mxPoint x="220" y="360" />
              <mxPoint x="221" y="360" />
              <mxPoint x="221" y="380" />
            </Array>
          </mxGeometry>
        </mxCell>
        <mxCell id="2ltraiP_QTm35YtcfbR_-24" value="是" style="edgeLabel;html=1;align=center;verticalAlign=middle;resizable=0;points=[];" vertex="1" connectable="0" parent="2ltraiP_QTm35YtcfbR_-21">
          <mxGeometry x="-0.0613" y="1" relative="1" as="geometry">
            <mxPoint as="offset" />
          </mxGeometry>
        </mxCell>
        <mxCell id="2ltraiP_QTm35YtcfbR_-19" value="counter至10？" style="rhombus;whiteSpace=wrap;html=1;" vertex="1" parent="WIyWlLk6GJQsqaUBKTNV-1">
          <mxGeometry x="175" y="290" width="90" height="50" as="geometry" />
        </mxCell>
        <mxCell id="2ltraiP_QTm35YtcfbR_-23" value="&lt;font style=&quot;font-size: 10px;&quot;&gt;直接翻转电平&lt;/font&gt;" style="rounded=0;whiteSpace=wrap;html=1;" vertex="1" parent="WIyWlLk6GJQsqaUBKTNV-1">
          <mxGeometry x="310" y="380" width="100" height="30" as="geometry" />
        </mxCell>
        <mxCell id="2ltraiP_QTm35YtcfbR_-26" value="&lt;font style=&quot;font-size: 10px;&quot;&gt;清空counter,翻转电平&lt;/font&gt;" style="rounded=0;whiteSpace=wrap;html=1;" vertex="1" parent="WIyWlLk6GJQsqaUBKTNV-1">
          <mxGeometry x="187.5" y="380" width="65" height="30" as="geometry" />
        </mxCell>
      </root>
    </mxGraphModel>
  </diagram>
</mxfile>
